<svg class="mr-2 h-6 w-6" viewBox="0 0 24 24" xmlns="http://www.w3.org/2000/svg" aria-hidden="true"><path d="M12 0C5.373 0 0 5.373 0 12c0 5.302 3.438 9.8 8.207 11.387.6.111.793-.261.793-.577v-2.234c-3.338.726-4.033-1.416-4.033-1.416-.546-1.387-1.333-1.756-1.333-1.756-1.089-.745.083-.729.083-.729 1.205.084 1.839 1.237 1.839 1.237 1.07 1.834 2.807 1.304 3.492.997.108-.775.419-1.305.762-1.604-2.665-.305-5.467-1.332-5.467-5.93 0-1.31.468-2.382 1.236-3.221-.124-.303-.535-1.524.117-3.176 0 0 1.008-.322 3.3 1.23.957-.266 1.983-.399 3.003-.404 1.02.005 2.047.138 3.006.404 2.29-1.552 3.297-1.23 3.297-1.23.653 1.652.242 2.873.118 3.176.77.839 1.235 1.911 1.235 3.221 0 4.61-2.807 5.624-5.479 5.92.43.372.823 1.102.823 2.222v3.293c0 .319.192.694.801.576C20.565 21.795 24 17.298 24 12c0-6.627-5.373-12-12-12z"></path></svg>